<svg width="180" height="53" viewBox="0 0 180 53" fill="none" xmlns="http://www.w3.org/2000/svg">
<g clip-path="url(#clip0_2_524)">
<path d="M94.9091 13.1006C94.9091 14.9796 93.28 16.4932 91.2578 16.4932C89.2355 16.4932 87.6065 14.9796 87.6065 13.1006C87.6065 11.2216 89.1793 9.70803 91.2578 9.70803C93.3362 9.76022 94.9091 11.2738 94.9091 13.1006ZM79.8545 19.938C79.8545 20.2512 79.8545 20.7731 79.8545 20.7731C79.8545 20.7731 78.1131 18.6853 74.4056 18.6853C68.2827 18.6853 63.5079 23.0174 63.5079 29.0197C63.5079 34.9698 68.2265 39.354 74.4056 39.354C78.1693 39.354 79.8545 37.2141 79.8545 37.2141V38.1014C79.8545 38.5189 80.1915 38.8321 80.6409 38.8321H85.191V19.2073C85.191 19.2073 81.0341 19.2073 80.6409 19.2073C80.1915 19.2073 79.8545 19.5726 79.8545 19.938ZM79.8545 32.5167C79.0119 33.6649 77.3267 34.6566 75.3044 34.6566C71.7093 34.6566 68.9568 32.5689 68.9568 29.0197C68.9568 25.4705 71.7093 23.3828 75.3044 23.3828C77.2705 23.3828 79.0681 24.4266 79.8545 25.5227V32.5167ZM88.5614 19.2073H93.9541V38.8321H88.5614V19.2073ZM169.115 18.6853C165.407 18.6853 163.666 20.7731 163.666 20.7731V9.76022H158.273V38.8321C158.273 38.8321 162.43 38.8321 162.823 38.8321C163.272 38.8321 163.61 38.4667 163.61 38.1014V37.2141C163.61 37.2141 165.351 39.354 169.058 39.354C175.181 39.354 179.956 34.9698 179.956 29.0197C179.956 23.0696 175.181 18.6853 169.115 18.6853ZM168.216 34.6044C166.137 34.6044 164.508 33.6127 163.666 32.4645V25.4705C164.508 24.4266 166.306 23.3306 168.216 23.3306C171.811 23.3306 174.563 25.4183 174.563 28.9675C174.563 32.5167 171.811 34.6044 168.216 34.6044ZM155.464 27.1929V38.8843H150.072V27.767C150.072 24.531 148.948 23.2262 145.915 23.2262C144.286 23.2262 142.601 24.0091 141.533 25.1574V38.8321H136.141V19.2073H140.41C140.859 19.2073 141.196 19.5726 141.196 19.938V20.7731C142.769 19.2595 144.847 18.6853 146.926 18.6853C149.285 18.6853 151.251 19.3117 152.824 20.5643C154.734 22.0257 155.464 23.9047 155.464 27.1929ZM123.052 18.6853C119.345 18.6853 117.603 20.7731 117.603 20.7731V9.76022H112.211V38.8321C112.211 38.8321 116.367 38.8321 116.761 38.8321C117.21 38.8321 117.547 38.4667 117.547 38.1014V37.2141C117.547 37.2141 119.288 39.354 122.996 39.354C129.119 39.354 133.894 34.9698 133.894 29.0197C133.95 23.0696 129.175 18.6853 123.052 18.6853ZM122.153 34.6044C120.075 34.6044 118.446 33.6127 117.603 32.4645V25.4705C118.446 24.4266 120.243 23.3306 122.153 23.3306C125.748 23.3306 128.501 25.4183 128.501 28.9675C128.501 32.5167 125.748 34.6044 122.153 34.6044ZM107.548 18.6853C109.177 18.6853 110.02 18.9463 110.02 18.9463V23.5915C110.02 23.5915 105.526 22.1823 102.717 25.1574V38.8843H97.3245V19.2073C97.3245 19.2073 101.481 19.2073 101.875 19.2073C102.324 19.2073 102.661 19.5726 102.661 19.938V20.7731C103.672 19.677 105.863 18.6853 107.548 18.6853ZM51.5429 37.0575C51.2621 36.4312 50.9812 35.7527 50.7003 35.1785C50.2509 34.2391 49.8016 33.3518 49.4083 32.5167L49.3522 32.4645C45.4762 24.6354 41.3193 16.702 36.9378 8.87293L36.7692 8.55976C36.3199 7.77686 35.8705 6.94176 35.4211 6.10666C34.8593 5.16718 34.2976 4.1755 33.3988 3.23601C31.6013 1.14826 29.0173 0 26.2648 0C23.4561 0 20.9283 1.14826 19.0745 3.13162C18.2319 4.07111 17.614 5.06279 17.0523 6.00227C16.6029 6.83737 16.1535 7.67247 15.7041 8.45538L15.5356 8.76854C11.2102 16.5976 6.99718 24.531 3.12119 32.3601L3.06501 32.4645C2.6718 33.2996 2.22241 34.1869 1.77302 35.1264C1.49215 35.7005 1.21128 36.3268 0.930414 37.0053C0.200155 38.9365 -0.0245397 40.7633 0.256329 42.6422C0.87424 46.5568 3.68293 49.845 7.55891 51.3064C9.01943 51.8805 10.5361 52.1415 12.109 52.1415C12.5584 52.1415 13.1201 52.0893 13.5695 52.0371C15.4232 51.8283 17.3331 51.2542 19.1869 50.2625C21.49 49.0621 23.6808 47.3397 26.1524 44.8344C28.6241 47.3397 30.871 49.0621 33.118 50.2625C34.9717 51.2542 36.8816 51.8283 38.7353 52.0371C39.1847 52.0893 39.7465 52.1415 40.1958 52.1415C41.7687 52.1415 43.3416 51.8805 44.7459 51.3064C48.6781 49.845 51.4306 46.5046 52.0485 42.6422C52.4979 40.8155 52.2732 38.9887 51.5429 37.0575ZM26.2086 39.7716C23.1752 36.2224 21.2091 32.882 20.535 30.0636C20.2542 28.8631 20.198 27.8192 20.3665 26.8797C20.4789 26.0447 20.8159 25.3139 21.2653 24.6876C22.3326 23.2784 24.1302 22.3911 26.2086 22.3911C28.287 22.3911 30.1408 23.2262 31.1519 24.6876C31.6013 25.3139 31.9383 26.0447 32.0507 26.8797C32.2192 27.8192 32.163 28.9153 31.8821 30.0636C31.2081 32.8298 29.242 36.1702 26.2086 39.7716ZM48.6219 42.2247C48.2287 44.9388 46.2626 47.2875 43.5101 48.3314C42.1619 48.8533 40.7014 49.0099 39.2409 48.8533C37.8365 48.6967 36.4322 48.2792 34.9717 47.4963C32.9494 46.4524 30.9272 44.8344 28.5679 42.4335C32.2754 38.2058 34.5223 34.3434 35.3649 30.8987C35.7581 29.2807 35.8143 27.8192 35.6458 26.4622C35.4211 25.1574 34.9155 23.9569 34.1291 22.913C32.3877 20.5643 29.4667 19.2073 26.2086 19.2073C22.9505 19.2073 20.0295 20.6165 18.2881 22.913C17.5017 23.9569 16.9961 25.1574 16.7714 26.4622C16.5467 27.8192 16.6029 29.3329 17.0523 30.8987C17.8949 34.3434 20.198 38.258 23.8493 42.4857C21.5462 44.8866 19.4677 46.5046 17.4455 47.5485C15.985 48.3314 14.5806 48.7489 13.1763 48.9055C11.6596 49.0621 10.1991 48.8533 8.90708 48.3835C6.15457 47.3397 4.18849 44.991 3.79527 42.2769C3.62675 40.972 3.7391 39.6672 4.30084 38.2058C4.46936 37.6838 4.75023 37.1619 5.0311 36.5356C5.42431 35.7005 5.8737 34.8132 6.32309 33.9259L6.37926 33.8215C10.2553 26.0447 14.4121 18.1112 18.7375 10.3865L18.906 10.0734C19.3554 9.29048 19.8048 8.45538 20.2542 7.67247C20.7036 6.83737 21.2091 6.05447 21.827 5.37595C23.0067 4.1233 24.5796 3.44478 26.3209 3.44478C28.0623 3.44478 29.6352 4.1233 30.8148 5.37595C31.4327 6.05447 31.9383 6.83737 32.3877 7.67247C32.8371 8.45538 33.2865 9.29048 33.7359 10.0734L33.9044 10.3865C38.1736 18.1634 42.3304 26.0968 46.2064 33.8737V33.9259C46.6558 34.761 47.049 35.7005 47.4984 36.5356C47.7793 37.1619 48.0602 37.6838 48.2287 38.2058C48.6781 39.5628 48.8466 40.8677 48.6219 42.2247Z" fill="#FF5A5F"/>
</g>
<defs>
<clipPath id="clip0_2_524">
<rect width="179.812" height="52.1415" fill="white" transform="translate(0.14386)"/>
</clipPath>
</defs>
</svg>
