<svg width="153" height="43" viewBox="0 0 153 43" fill="none" xmlns="http://www.w3.org/2000/svg">
<g clip-path="url(#clip0_2_534)">
<path fill-rule="evenodd" clip-rule="evenodd" d="M94.9382 33.3188C86.0502 39.3745 73.1676 42.6055 62.0759 42.6055C46.5235 42.6055 32.5224 37.2882 21.93 28.4447C21.0978 27.7492 21.8434 26.8015 22.8421 27.3431C34.2733 33.4911 48.4076 37.1898 63.0079 37.1898C72.8547 37.1898 83.6867 35.3066 93.6466 31.3987C95.1513 30.8079 96.4096 32.3095 94.9382 33.3188Z" fill="#FF9900"/>
<path fill-rule="evenodd" clip-rule="evenodd" d="M98.6332 29.4109C97.5014 28.0693 91.1234 28.777 88.2606 29.0909C87.3884 29.1894 87.2553 28.4878 88.0409 27.9832C93.1207 24.6784 101.456 25.6323 102.428 26.74C103.4 27.8539 102.175 35.5774 97.4015 39.2638C96.6692 39.83 95.9701 39.5284 96.2964 38.7776C97.3683 36.3036 99.7717 30.7587 98.6332 29.4109Z" fill="#FF9900"/>
<path fill-rule="evenodd" clip-rule="evenodd" d="M88.4602 4.65265V1.44016C88.4602 0.953979 88.8597 0.627808 89.3391 0.627808H104.898C105.397 0.627808 105.797 0.960134 105.797 1.44016V4.19108C105.79 4.65265 105.371 5.25576 104.625 6.20966L96.5626 16.8503C99.5586 16.7826 102.721 17.1949 105.437 18.6104C106.05 18.9304 106.216 19.3981 106.263 19.8597V23.2875C106.263 23.7553 105.704 24.303 105.118 24.0199C100.331 21.6998 93.9728 21.4474 88.6799 24.0445C88.1407 24.3153 87.5748 23.7737 87.5748 23.306V20.0504C87.5748 19.5273 87.5814 18.635 88.1473 17.8411L97.4881 5.45885H89.359C88.8597 5.45885 88.4602 5.13268 88.4602 4.65265Z" fill="black"/>
<path fill-rule="evenodd" clip-rule="evenodd" d="M31.7034 24.6968H26.9698C26.5171 24.666 26.1576 24.3522 26.1243 23.9522V1.49553C26.1243 1.04627 26.5304 0.689328 27.0364 0.689328H31.4504C31.9098 0.707778 32.276 1.03396 32.3093 1.44014V4.37569H32.3958C33.5476 1.5386 35.7113 0.215454 38.6274 0.215454C41.5901 0.215454 43.4409 1.5386 44.7725 4.37569C45.9176 1.5386 48.5207 0.215454 51.3103 0.215454C53.2943 0.215454 55.4647 0.972419 56.7896 2.67098C58.2876 4.56031 57.9813 7.30508 57.9813 9.71137L57.9747 23.8845C57.9747 24.3337 57.5685 24.6968 57.0626 24.6968H52.3356C51.8629 24.666 51.4834 24.3153 51.4834 23.8845V11.9823C51.4834 11.0345 51.5766 8.67131 51.3503 7.7728C50.9974 6.26503 49.9388 5.84038 48.5673 5.84038C47.4222 5.84038 46.2238 6.54811 45.7378 7.68049C45.2518 8.81286 45.2984 10.7083 45.2984 11.9823V23.8845C45.2984 24.3337 44.8923 24.6968 44.3863 24.6968H39.6594C39.18 24.666 38.8072 24.3153 38.8072 23.8845L38.8005 11.9823C38.8005 9.47751 39.2466 5.79115 35.8845 5.79115C32.4824 5.79115 32.6155 9.38519 32.6155 11.9823V23.8845C32.6155 24.3337 32.2094 24.6968 31.7034 24.6968" fill="black"/>
<path fill-rule="evenodd" clip-rule="evenodd" d="M119.192 0.215454C126.216 0.215454 130.017 5.79115 130.017 12.8808C130.017 19.7304 125.816 25.1645 119.192 25.1645C112.295 25.1645 108.54 19.5888 108.54 12.6408C108.54 5.6496 112.341 0.215454 119.192 0.215454ZM119.232 4.80033C115.743 4.80033 115.524 9.19441 115.524 11.933C115.524 14.6778 115.477 20.5366 119.192 20.5366C122.86 20.5366 123.034 15.8102 123.034 12.93C123.034 11.0345 122.947 8.76978 122.328 6.97275C121.795 5.40959 120.737 4.80033 119.232 4.80033Z" fill="black"/>
<path fill-rule="evenodd" clip-rule="evenodd" d="M139.125 24.6968H134.412C133.939 24.666 133.559 24.3153 133.559 23.8845L133.553 1.42168C133.593 1.00934 133.985 0.689328 134.465 0.689328H138.852C139.265 0.707778 139.605 0.966267 139.698 1.31706V4.75109H139.784C141.109 1.68015 142.967 0.215454 146.236 0.215454C148.359 0.215454 150.43 0.923187 151.762 2.86176C153 4.65878 153 7.68049 153 9.85291V23.9891C152.947 24.383 152.554 24.6968 152.088 24.6968H147.341C146.908 24.666 146.549 24.3706 146.502 23.9891V11.7915C146.502 9.33596 146.808 5.74191 143.539 5.74191C142.387 5.74191 141.329 6.4558 140.803 7.53894C140.137 8.91133 140.051 10.2776 140.051 11.7915V23.8845C140.044 24.3337 139.631 24.6968 139.125 24.6968" fill="black"/>
<path fill-rule="evenodd" clip-rule="evenodd" d="M76.057 13.97C76.057 15.6747 76.1036 17.0963 75.1715 18.6103C74.4192 19.8411 73.2208 20.5981 71.8959 20.5981C70.0784 20.5981 69.0132 19.318 69.0132 17.4287C69.0132 13.6992 72.6283 13.0223 76.057 13.0223V13.97ZM80.8306 24.6352C80.5176 24.8937 80.0649 24.9122 79.7121 24.7399C78.1408 23.5336 77.8546 22.9736 76.9957 21.8228C74.3992 24.2721 72.555 25.0045 69.1929 25.0045C65.205 25.0045 62.1091 22.7336 62.1091 18.1856C62.1091 14.6347 64.1863 12.2161 67.1557 11.0345C69.7255 9.98825 73.314 9.80363 76.057 9.51438V8.9482C76.057 7.90814 76.1435 6.6773 75.4778 5.77879C74.9052 4.97259 73.8 4.64026 72.8214 4.64026C71.0171 4.64026 69.4126 5.49569 69.0198 7.2681C68.9399 7.66197 68.627 8.04969 68.1943 8.06815L63.6071 7.61273C63.221 7.53273 62.7882 7.24348 62.9014 6.69576C63.9533 1.55086 68.9865 0 73.4871 0C75.7907 0 78.8 0.566187 80.6175 2.17858C82.9211 4.16639 82.7014 6.81884 82.7014 9.70516V16.524C82.7014 18.5734 83.6201 19.4719 84.4856 20.5796C84.7852 20.9735 84.8518 21.4474 84.4656 21.7428C83.5003 22.4874 81.7826 23.8721 80.8372 24.6475L80.8305 24.6352" fill="black"/>
<path fill-rule="evenodd" clip-rule="evenodd" d="M14.0007 13.97C14.0007 15.6747 14.0473 17.0963 13.1152 18.6103C12.3629 19.8411 11.1712 20.5981 9.83966 20.5981C8.02211 20.5981 6.96354 19.318 6.96354 17.4287C6.96354 13.6992 10.5787 13.0223 14.0007 13.0223V13.97ZM18.7743 24.6352C18.4614 24.8937 18.0086 24.9122 17.6558 24.7399C16.0846 23.5336 15.8049 22.9736 14.9394 21.8228C12.3429 24.2721 10.5054 25.0045 7.13663 25.0045C3.15533 25.0045 0.0528564 22.7336 0.0528564 18.1856C0.0528564 14.6347 2.13671 12.2161 5.09938 11.0345C7.66925 9.98825 11.2577 9.80363 14.0007 9.51438V8.9482C14.0007 7.90814 14.0873 6.6773 13.4282 5.77879C12.8489 4.97259 11.7438 4.64026 10.7717 4.64026C8.9675 4.64026 7.35634 5.49569 6.96354 7.2681C6.88364 7.66197 6.57073 8.04969 6.14464 8.06815L1.55084 7.61273C1.16469 7.53273 0.738597 7.24348 0.84512 6.69576C1.90369 1.55086 6.93025 0 11.4308 0C13.7344 0 16.7437 0.566187 18.5612 2.17858C20.8648 4.16639 20.6451 6.81884 20.6451 9.70516V16.524C20.6451 18.5734 21.5639 19.4719 22.4294 20.5796C22.7356 20.9735 22.8022 21.4474 22.416 21.7428C21.4507 22.4874 19.733 23.8721 18.7876 24.6475L18.7743 24.6352" fill="black"/>
</g>
<defs>
<clipPath id="clip0_2_534">
<rect width="152.947" height="42.6055" fill="white" transform="translate(0.0528564)"/>
</clipPath>
</defs>
</svg>
