<svg width="164" height="50" viewBox="0 0 164 50" fill="none" xmlns="http://www.w3.org/2000/svg">
<g clip-path="url(#clip0_2_526)">
<path d="M157.955 30.1766L162.466 32.9596C161.002 34.9553 157.5 38.3792 151.446 38.3792C143.929 38.3792 138.33 32.9963 138.33 26.1486C138.33 18.8615 143.988 13.918 150.813 13.918C157.678 13.918 161.042 18.9713 162.13 21.6994L162.723 23.0909L145.036 29.8654C146.382 32.3188 148.479 33.5638 151.446 33.5638C154.414 33.5638 156.472 32.209 157.955 30.1766ZM144.087 25.7641L155.898 21.2234C155.245 19.7037 153.306 18.6235 150.991 18.6235C148.044 18.6235 143.948 21.0403 144.087 25.7641Z" fill="#FF302F"/>
<path d="M129.803 1.44934H135.501V37.2623H129.803V1.44934Z" fill="#20B15A"/>
<path d="M120.821 14.8701H126.321V36.6215C126.321 45.648 120.564 49.3648 113.758 49.3648C107.348 49.3648 103.49 45.3733 102.046 42.1326L107.091 40.1918C108.001 42.1875 110.197 44.5494 113.758 44.5494C118.13 44.5494 120.821 42.041 120.821 37.3539V35.5962H120.623C119.317 37.0609 116.824 38.3792 113.659 38.3792C107.051 38.3792 100.997 33.0512 100.997 26.1852C100.997 19.2826 107.051 13.8997 113.659 13.8997C116.805 13.8997 119.317 15.1996 120.623 16.6277H120.821V14.8701ZM121.217 26.1852C121.217 21.8642 118.11 18.715 114.154 18.715C110.157 18.715 106.794 21.8642 106.794 26.1852C106.794 30.4513 110.157 33.5455 114.154 33.5455C118.11 33.5638 121.217 30.4513 121.217 26.1852Z" fill="#3686F7"/>
<path d="M69.7188 26.0936C69.7188 33.1427 63.7836 38.3243 56.5031 38.3243C49.2226 38.3243 43.2874 33.1244 43.2874 26.0936C43.2874 19.0079 49.2226 13.8447 56.5031 13.8447C63.7836 13.8447 69.7188 19.0079 69.7188 26.0936ZM63.9419 26.0936C63.9419 21.6994 60.4995 18.6784 56.5031 18.6784C52.5068 18.6784 49.0644 21.6994 49.0644 26.0936C49.0644 30.4513 52.5068 33.5089 56.5031 33.5089C60.4995 33.5089 63.9419 30.4513 63.9419 26.0936Z" fill="#FF302F"/>
<path d="M98.5836 26.1486C98.5836 33.1977 92.6485 38.3792 85.3679 38.3792C78.0874 38.3792 72.1523 33.1977 72.1523 26.1486C72.1523 19.0629 78.0874 13.918 85.3679 13.918C92.6485 13.918 98.5836 19.0446 98.5836 26.1486ZM92.7869 26.1486C92.7869 21.7543 89.3445 18.7333 85.3482 18.7333C81.3518 18.7333 77.9094 21.7543 77.9094 26.1486C77.9094 30.5062 81.3518 33.5638 85.3482 33.5638C89.3643 33.5638 92.7869 30.4879 92.7869 26.1486Z" fill="#FFBA40"/>
<path d="M21.5646 33.0146C13.2751 33.0146 6.78599 26.8261 6.78599 19.1545C6.78599 11.4829 13.2751 5.29432 21.5646 5.29432C26.0358 5.29432 29.3002 6.92385 31.7138 9.01111L35.6904 5.33094C32.3271 2.34652 27.8361 0.0761719 21.5646 0.0761719C10.2086 0.0761719 0.652954 8.64492 0.652954 19.1545C0.652954 29.664 10.2086 38.2327 21.5646 38.2327C27.6976 38.2327 32.3271 36.3652 35.9476 32.8864C39.667 29.4443 40.8144 24.6106 40.8144 20.6924C40.8144 19.4657 40.6562 18.2024 40.4781 17.2686H21.5646V22.3586H35.0375C34.6418 25.5444 33.5537 27.7232 31.9512 29.2063C30.0124 31.0189 26.9459 33.0146 21.5646 33.0146Z" fill="#3686F7"/>
</g>
<defs>
<clipPath id="clip0_2_526">
<rect width="162.603" height="49.3773" fill="white" transform="translate(0.416626)"/>
</clipPath>
</defs>
</svg>
