<svg width="180" height="28" viewBox="0 0 180 28" fill="none" xmlns="http://www.w3.org/2000/svg">
<g clip-path="url(#clip0_2_520)">
<path d="M83.5056 11.1667C80.8401 11.1667 78.9494 13.1127 78.9494 16.0999V27.0574H74.8805V7.77032H78.9007V10.1255C79.3965 9.34491 80.1071 8.70226 80.9588 8.26416C81.8105 7.82607 82.7722 7.60847 83.7444 7.63392H85.2063V11.1667H83.5056ZM72.0688 17.4139C72.0688 11.6623 67.6831 7.36112 61.7479 7.36112C60.3455 7.37001 58.9589 7.63752 57.6677 8.14828C56.3766 8.65904 55.2065 9.40296 54.2246 10.3372C53.2428 11.2715 52.4686 12.3777 51.9466 13.5922C51.4247 14.8067 51.1653 16.1055 51.1833 17.4139C51.1833 23.1609 55.9344 27.5075 62.1328 27.5075C63.8642 27.538 65.5782 27.1798 67.1301 26.4628C68.6821 25.7459 70.0266 24.6914 71.0503 23.3882L68.0973 21.3695C67.4198 22.2517 66.5234 22.9678 65.4847 23.4563C64.446 23.9448 63.2959 24.1914 62.1328 24.1748C60.4763 24.1675 58.8774 23.6067 57.6258 22.5942C56.3743 21.5816 55.553 20.1841 55.3107 18.6551H72.0785L72.0688 17.4139ZM55.3984 15.6452C56.1245 12.7035 58.6438 10.712 61.6991 10.712C64.7545 10.712 67.2689 12.7035 67.9511 15.6452H55.3984ZM38.2943 7.36112C36.9345 7.36219 35.5884 7.61467 34.3338 8.10398C33.0792 8.59329 31.941 9.30973 30.9849 10.2119V0.568359H26.916V27.0574H30.9361V24.6113C32.8837 26.4496 35.5338 27.4913 38.3041 27.5075C39.7411 27.536 41.1698 27.2965 42.5064 26.8031C43.8429 26.3097 45.0605 25.5722 46.0876 24.634C47.1147 23.6958 47.9307 22.5757 48.4878 21.3394C49.0449 20.1031 49.3319 18.7755 49.3319 17.4343C49.3319 16.0932 49.0449 14.7655 48.4878 13.5292C47.9307 12.2929 47.1147 11.1728 46.0876 10.2346C45.0605 9.29641 43.8429 8.55898 42.5064 8.06555C41.1698 7.57212 39.7411 7.33263 38.3041 7.36112H38.2943ZM38.0019 24.1157C36.5837 24.122 35.1954 23.7351 34.0132 23.004C32.831 22.2729 31.9082 21.2306 31.3619 20.0094C30.8156 18.7882 30.6703 17.4431 30.9447 16.1448C31.219 14.8465 31.9005 13.6534 32.9027 12.7171C33.9049 11.7807 35.1826 11.1432 36.5737 10.8855C37.9648 10.6277 39.4066 10.7614 40.7162 11.2695C42.0258 11.7775 43.1441 12.6371 43.9293 13.7392C44.7144 14.8412 45.131 16.136 45.1262 17.4593C45.1275 18.3322 44.944 19.1967 44.5863 20.0032C44.2286 20.8097 43.7038 21.5424 43.0418 22.1591C42.3799 22.7759 41.5939 23.2646 40.7291 23.5973C39.8642 23.9299 38.9374 24.0999 38.0019 24.0975V24.1157ZM11.9316 23.9338C15.8592 23.9338 18.9097 21.124 18.9097 16.9137V0.568359H23.1248V27.0574H18.9584V24.5522C17.985 25.4908 16.8176 26.2355 15.5269 26.7411C14.2362 27.2468 12.849 27.5028 11.4492 27.4939C5.39211 27.4939 0.728683 23.3746 0.728683 17.1274V0.568359H5.02176V16.9365C5.02176 21.1694 7.94553 23.9338 11.9316 23.9338Z" fill="#262626"/>
<path d="M95.3274 0.568359H115.243V5.11505H100.707V11.5714H114.839V15.9635H100.707V22.5289H115.243V27.0756H95.3274V0.568359ZM170.244 27.553C176.35 27.553 179.79 24.825 179.79 21.0785C179.79 18.4096 177.753 16.4181 173.49 15.5543L168.982 14.6949C166.365 14.2403 165.542 13.7856 165.542 12.8763C165.542 11.6987 166.804 10.9757 169.128 10.9757C171.648 10.9757 173.514 11.6077 174.001 13.7811H179.284C178.996 9.68903 175.843 6.98829 169.45 6.98829C163.924 6.98829 160.045 9.11615 160.045 13.24C160.045 16.0908 162.179 17.9458 166.784 18.8506L171.823 19.9373C173.811 20.301 174.342 20.8012 174.342 21.5695C174.342 22.7926 172.841 23.561 170.415 23.561C167.364 23.561 165.62 22.929 164.942 20.7557H159.631C160.406 24.8386 163.651 27.553 170.244 27.553ZM158.096 27.0574H152.38C148.793 27.0574 146.805 24.975 146.805 22.347V11.9351H142.785V7.49752H146.825V1.92782H152.136V7.49752H158.096V11.9351H152.136V21.0785C152.136 22.1197 152.911 22.6198 154.124 22.6198H158.096V27.0574ZM135.193 7.50662V9.27073C133.323 7.79572 130.951 6.98986 128.502 6.99739C127.036 6.96861 125.579 7.21319 124.216 7.71677C122.852 8.22035 121.61 8.97281 120.562 9.93004C119.515 10.8873 118.682 12.03 118.114 13.2913C117.546 14.5526 117.253 15.907 117.253 17.2752C117.253 18.6434 117.546 19.9978 118.114 21.2591C118.682 22.5204 119.515 23.6631 120.562 24.6203C121.61 25.5776 122.852 26.33 124.216 26.8336C125.579 27.3372 127.036 27.5818 128.502 27.553C130.952 27.5629 133.324 26.7568 135.193 25.2796V27.0483H140.49V7.49752L135.193 7.50662ZM128.941 23.2609C127.67 23.2744 126.424 22.9352 125.361 22.2863C124.297 21.6374 123.465 20.7081 122.969 19.6166C122.472 18.5251 122.335 17.3207 122.575 16.1563C122.814 14.9919 123.419 13.9202 124.313 13.0774C125.206 12.2346 126.348 11.6587 127.594 11.4229C128.839 11.1871 130.131 11.3021 131.306 11.7533C132.481 12.2044 133.486 12.9714 134.193 13.9566C134.9 14.9419 135.277 16.101 135.276 17.2866C135.284 18.0681 135.125 18.8433 134.81 19.5674C134.494 20.2914 134.028 20.9498 133.438 21.5046C132.848 22.0594 132.146 22.4995 131.372 22.7994C130.599 23.0993 129.769 23.2531 128.931 23.2518L128.941 23.2609Z" fill="#5FB709"/>
</g>
<defs>
<clipPath id="clip0_2_520">
<rect width="179.812" height="27.7348" fill="white" transform="translate(0.148865)"/>
</clipPath>
</defs>
</svg>
